<svg xmlns="http://www.w3.org/2000/svg" xmlns:xlink="http://www.w3.org/1999/xlink" width="1080" zoomAndPan="magnify" viewBox="0 0 810 809.999993" height="1080" preserveAspectRatio="xMidYMid meet" version="1.0"><defs><g/></defs><rect x="-81" width="972" fill="#ffffff" y="-80.999999" height="971.999992" fill-opacity="1"/><rect x="-81" width="972" fill="#ffffff" y="-80.999999" height="971.999992" fill-opacity="1"/><rect x="-81" width="972" fill="#5ce1e6" y="-80.999999" height="971.999992" fill-opacity="1"/><g fill="#8c52ff" fill-opacity="1"><g transform="translate(36.376089, 701.073921)"><g><path d="M 16.5625 0 L 10.328125 0 L 2.15625 -33.390625 L 7.03125 -33.390625 L 13.34375 -5.75 L 13.984375 -5.75 L 21.765625 -33.390625 L 26.9375 -33.390625 L 34.96875 -5.75 L 35.609375 -5.75 L 41.8125 -33.390625 L 46.53125 -33.390625 L 38.453125 0 L 32.1875 0 L 24.546875 -25.921875 L 23.921875 -25.921875 Z M 16.5625 0 "/></g></g></g><g fill="#8c52ff" fill-opacity="1"><g transform="translate(85.04964, 701.073921)"><g><path d="M 16.5625 0 L 10.328125 0 L 2.15625 -33.390625 L 7.03125 -33.390625 L 13.34375 -5.75 L 13.984375 -5.75 L 21.765625 -33.390625 L 26.9375 -33.390625 L 34.96875 -5.75 L 35.609375 -5.75 L 41.8125 -33.390625 L 46.53125 -33.390625 L 38.453125 0 L 32.1875 0 L 24.546875 -25.921875 L 23.921875 -25.921875 Z M 16.5625 0 "/></g></g></g><g fill="#8c52ff" fill-opacity="1"><g transform="translate(133.723191, 701.073921)"><g><path d="M 16.5625 0 L 10.328125 0 L 2.15625 -33.390625 L 7.03125 -33.390625 L 13.34375 -5.75 L 13.984375 -5.75 L 21.765625 -33.390625 L 26.9375 -33.390625 L 34.96875 -5.75 L 35.609375 -5.75 L 41.8125 -33.390625 L 46.53125 -33.390625 L 38.453125 0 L 32.1875 0 L 24.546875 -25.921875 L 23.921875 -25.921875 Z M 16.5625 0 "/></g></g></g><g fill="#8c52ff" fill-opacity="1"><g transform="translate(182.396742, 701.073921)"><g><path d="M 8.140625 0.296875 C 6.992188 0.296875 6.085938 -0.0234375 5.421875 -0.671875 C 4.753906 -1.316406 4.421875 -2.171875 4.421875 -3.234375 C 4.421875 -4.285156 4.753906 -5.148438 5.421875 -5.828125 C 6.085938 -6.503906 6.992188 -6.84375 8.140625 -6.84375 C 9.316406 -6.84375 10.234375 -6.519531 10.890625 -5.875 C 11.554688 -5.226562 11.890625 -4.367188 11.890625 -3.296875 C 11.890625 -2.234375 11.550781 -1.367188 10.875 -0.703125 C 10.207031 -0.0351562 9.296875 0.296875 8.140625 0.296875 Z M 8.140625 0.296875 "/></g></g></g><g fill="#8c52ff" fill-opacity="1"><g transform="translate(198.712068, 701.073921)"><g><path d="M 17.203125 14.171875 C 11.929688 14.171875 8.082031 13.289062 5.65625 11.53125 C 3.238281 9.78125 2.03125 7.453125 2.03125 4.546875 C 2.03125 2.660156 2.59375 1.160156 3.71875 0.046875 C 4.851562 -1.054688 6.5 -1.847656 8.65625 -2.328125 L 8.65625 -2.96875 C 7.625 -3.550781 6.851562 -4.234375 6.34375 -5.015625 C 5.832031 -5.804688 5.578125 -6.75 5.578125 -7.84375 C 5.578125 -9.132812 5.984375 -10.179688 6.796875 -10.984375 C 7.609375 -11.796875 8.820312 -12.414062 10.4375 -12.84375 L 10.4375 -13.46875 C 6.8125 -15.382812 5 -18.503906 5 -22.828125 C 5 -25.003906 5.492188 -26.941406 6.484375 -28.640625 C 7.472656 -30.335938 8.882812 -31.660156 10.71875 -32.609375 C 12.550781 -33.554688 14.691406 -34.03125 17.140625 -34.03125 C 19.941406 -34.03125 22.28125 -33.414062 24.15625 -32.1875 C 24.863281 -32.96875 25.394531 -33.804688 25.75 -34.703125 C 26.101562 -35.609375 26.328125 -36.625 26.421875 -37.75 L 27.0625 -38.140625 L 31.125 -37.171875 C 30.914062 -35.484375 30.398438 -34.050781 29.578125 -32.875 C 28.765625 -31.707031 27.613281 -30.738281 26.125 -29.96875 L 26.125 -29.328125 C 27.195312 -28.484375 27.988281 -27.488281 28.5 -26.34375 C 29.019531 -25.207031 29.28125 -23.882812 29.28125 -22.375 C 29.28125 -20.269531 28.773438 -18.378906 27.765625 -16.703125 C 26.753906 -15.035156 25.328125 -13.722656 23.484375 -12.765625 C 21.648438 -11.804688 19.535156 -11.328125 17.140625 -11.328125 C 16.859375 -11.328125 16.351562 -11.347656 15.625 -11.390625 C 14.8125 -11.421875 14.210938 -11.4375 13.828125 -11.4375 C 12.785156 -11.4375 11.953125 -11.164062 11.328125 -10.625 C 10.703125 -10.082031 10.390625 -9.382812 10.390625 -8.53125 C 10.390625 -7.488281 10.722656 -6.71875 11.390625 -6.21875 C 12.066406 -5.726562 13.1875 -5.453125 14.75 -5.390625 L 22.640625 -5.109375 C 26.054688 -4.992188 28.585938 -4.203125 30.234375 -2.734375 C 31.878906 -1.273438 32.703125 0.796875 32.703125 3.484375 C 32.703125 5.484375 32.164062 7.285156 31.09375 8.890625 C 30.019531 10.492188 28.320312 11.773438 26 12.734375 C 23.6875 13.691406 20.753906 14.171875 17.203125 14.171875 Z M 17.140625 -15.5625 C 19.492188 -15.5625 21.316406 -16.175781 22.609375 -17.40625 C 23.898438 -18.632812 24.546875 -20.359375 24.546875 -22.578125 C 24.546875 -24.878906 23.90625 -26.65625 22.625 -27.90625 C 21.34375 -29.164062 19.515625 -29.796875 17.140625 -29.796875 C 14.753906 -29.796875 12.9375 -29.171875 11.6875 -27.921875 C 10.4375 -26.679688 9.8125 -24.898438 9.8125 -22.578125 C 9.8125 -20.335938 10.4375 -18.609375 11.6875 -17.390625 C 12.9375 -16.171875 14.753906 -15.5625 17.140625 -15.5625 Z M 17.203125 9.9375 C 19.660156 9.9375 21.671875 9.660156 23.234375 9.109375 C 24.796875 8.566406 25.921875 7.84375 26.609375 6.9375 C 27.296875 6.039062 27.640625 5.039062 27.640625 3.9375 C 27.640625 2.945312 27.453125 2.148438 27.078125 1.546875 C 26.703125 0.941406 26.097656 0.488281 25.265625 0.1875 C 24.441406 -0.113281 23.316406 -0.304688 21.890625 -0.390625 L 14.40625 -0.75 L 13.34375 -0.75 C 9.164062 -0.695312 7.078125 0.925781 7.078125 4.125 C 7.078125 8 10.453125 9.9375 17.203125 9.9375 Z M 17.203125 9.9375 "/></g></g></g><g fill="#8c52ff" fill-opacity="1"><g transform="translate(232.916728, 701.073921)"><g><path d="M 8.296875 -39.84375 C 7.242188 -39.84375 6.390625 -40.171875 5.734375 -40.828125 C 5.078125 -41.484375 4.75 -42.316406 4.75 -43.328125 C 4.75 -44.328125 5.078125 -45.15625 5.734375 -45.8125 C 6.390625 -46.46875 7.242188 -46.796875 8.296875 -46.796875 C 9.347656 -46.796875 10.203125 -46.46875 10.859375 -45.8125 C 11.515625 -45.15625 11.84375 -44.328125 11.84375 -43.328125 C 11.84375 -42.316406 11.515625 -41.484375 10.859375 -40.828125 C 10.203125 -40.171875 9.347656 -39.84375 8.296875 -39.84375 Z M 5.8125 0 L 5.8125 -33.390625 L 10.75 -33.390625 L 10.75 0 Z M 5.8125 0 "/></g></g></g><g fill="#8c52ff" fill-opacity="1"><g transform="translate(249.474222, 701.073921)"><g><path d="M 22.578125 -5.296875 L 24.15625 -1.75 C 23.375 -0.96875 22.34375 -0.375 21.0625 0.03125 C 19.78125 0.4375 18.390625 0.640625 16.890625 0.640625 C 10.515625 0.640625 7.328125 -2.585938 7.328125 -9.046875 L 7.328125 -29.359375 L 1.515625 -29.359375 L 1.515625 -33.421875 L 7.328125 -33.421875 L 7.328125 -40.46875 L 12.265625 -41.296875 L 12.265625 -33.421875 L 23.015625 -33.421875 L 23.015625 -29.359375 L 12.265625 -29.359375 L 12.265625 -9.53125 C 12.265625 -5.695312 13.925781 -3.78125 17.25 -3.78125 C 19.070312 -3.78125 20.640625 -4.285156 21.953125 -5.296875 Z M 22.578125 -5.296875 "/></g></g></g><g fill="#8c52ff" fill-opacity="1"><g transform="translate(274.900704, 701.073921)"><g><path d="M 5.8125 0 L 5.8125 -46.796875 L 10.75 -46.796875 L 10.75 -28.640625 L 11.390625 -28.515625 C 13.765625 -32.191406 17.203125 -34.03125 21.703125 -34.03125 C 25.722656 -34.03125 28.632812 -33.003906 30.4375 -30.953125 C 32.25 -28.898438 33.15625 -25.75 33.15625 -21.5 L 33.15625 0 L 28.21875 0 L 28.21875 -21.375 C 28.21875 -23.394531 27.957031 -25.015625 27.4375 -26.234375 C 26.925781 -27.453125 26.128906 -28.335938 25.046875 -28.890625 C 23.972656 -29.453125 22.554688 -29.734375 20.796875 -29.734375 C 17.765625 -29.734375 15.332031 -28.753906 13.5 -26.796875 C 11.664062 -24.835938 10.75 -21.617188 10.75 -17.140625 L 10.75 0 Z M 5.8125 0 "/></g></g></g><g fill="#8c52ff" fill-opacity="1"><g transform="translate(313.343123, 701.073921)"><g><path d="M 16.5 0.640625 C 12.726562 0.640625 9.914062 -0.359375 8.0625 -2.359375 C 6.21875 -4.359375 5.296875 -7.285156 5.296875 -11.140625 L 5.296875 -33.390625 L 10.234375 -33.390625 L 10.234375 -11.265625 C 10.234375 -6.191406 12.613281 -3.65625 17.375 -3.65625 C 20.40625 -3.65625 22.796875 -4.644531 24.546875 -6.625 C 26.304688 -8.601562 27.1875 -11.8125 27.1875 -16.25 L 27.1875 -33.390625 L 32.125 -33.390625 L 32.125 0 L 27.453125 0 L 27.453125 -5.234375 L 26.828125 -5.390625 C 25.671875 -3.347656 24.289062 -1.832031 22.6875 -0.84375 C 21.082031 0.144531 19.019531 0.640625 16.5 0.640625 Z M 16.5 0.640625 "/></g></g></g><g fill="#8c52ff" fill-opacity="1"><g transform="translate(351.27097, 701.073921)"><g><path d="M 22.1875 0.640625 C 19.707031 0.640625 17.550781 0.160156 15.71875 -0.796875 C 13.894531 -1.753906 12.453125 -3.023438 11.390625 -4.609375 L 10.75 -4.484375 L 10.75 0 L 5.8125 0 L 5.8125 -46.796875 L 10.75 -46.796875 L 10.75 -28.390625 L 11.390625 -28.28125 C 13.929688 -32.113281 17.625 -34.03125 22.46875 -34.03125 C 25.207031 -34.03125 27.601562 -33.394531 29.65625 -32.125 C 31.71875 -30.851562 33.316406 -28.921875 34.453125 -26.328125 C 35.597656 -23.734375 36.171875 -20.519531 36.171875 -16.6875 C 36.171875 -12.882812 35.570312 -9.6875 34.375 -7.09375 C 33.175781 -4.5 31.523438 -2.5625 29.421875 -1.28125 C 27.328125 0 24.914062 0.640625 22.1875 0.640625 Z M 21.015625 -3.78125 C 27.671875 -3.78125 31 -8.082031 31 -16.6875 C 31 -21.144531 30.128906 -24.410156 28.390625 -26.484375 C 26.660156 -28.566406 24.203125 -29.609375 21.015625 -29.609375 C 17.878906 -29.609375 15.382812 -28.539062 13.53125 -26.40625 C 11.675781 -24.28125 10.75 -21.039062 10.75 -16.6875 C 10.75 -12.34375 11.675781 -9.101562 13.53125 -6.96875 C 15.382812 -4.84375 17.878906 -3.78125 21.015625 -3.78125 Z M 21.015625 -3.78125 "/></g></g></g><g fill="#8c52ff" fill-opacity="1"><g transform="translate(391.105792, 701.073921)"><g><path d="M 8.140625 0.296875 C 6.992188 0.296875 6.085938 -0.0234375 5.421875 -0.671875 C 4.753906 -1.316406 4.421875 -2.171875 4.421875 -3.234375 C 4.421875 -4.285156 4.753906 -5.148438 5.421875 -5.828125 C 6.085938 -6.503906 6.992188 -6.84375 8.140625 -6.84375 C 9.316406 -6.84375 10.234375 -6.519531 10.890625 -5.875 C 11.554688 -5.226562 11.890625 -4.367188 11.890625 -3.296875 C 11.890625 -2.234375 11.550781 -1.367188 10.875 -0.703125 C 10.207031 -0.0351562 9.296875 0.296875 8.140625 0.296875 Z M 8.140625 0.296875 "/></g></g></g><g fill="#8c52ff" fill-opacity="1"><g transform="translate(407.421129, 701.073921)"><g><path d="M 19.15625 0.640625 C 16.21875 0.640625 13.578125 -0.03125 11.234375 -1.375 C 8.890625 -2.71875 7.039062 -4.695312 5.6875 -7.3125 C 4.332031 -9.925781 3.65625 -13.050781 3.65625 -16.6875 C 3.65625 -20.332031 4.332031 -23.460938 5.6875 -26.078125 C 7.039062 -28.691406 8.890625 -30.671875 11.234375 -32.015625 C 13.578125 -33.359375 16.21875 -34.03125 19.15625 -34.03125 C 22.695312 -34.03125 25.507812 -33.363281 27.59375 -32.03125 C 29.6875 -30.695312 31.195312 -28.921875 32.125 -26.703125 L 28.765625 -24.28125 L 28.15625 -24.28125 C 27.25 -26.113281 26.082031 -27.457031 24.65625 -28.3125 C 23.238281 -29.175781 21.40625 -29.609375 19.15625 -29.609375 C 17.101562 -29.609375 15.296875 -29.125 13.734375 -28.15625 C 12.179688 -27.1875 10.976562 -25.734375 10.125 -23.796875 C 9.269531 -21.859375 8.84375 -19.488281 8.84375 -16.6875 C 8.84375 -13.894531 9.273438 -11.535156 10.140625 -9.609375 C 11.003906 -7.679688 12.207031 -6.226562 13.75 -5.25 C 15.300781 -4.269531 17.101562 -3.78125 19.15625 -3.78125 C 21.476562 -3.78125 23.398438 -4.304688 24.921875 -5.359375 C 26.453125 -6.410156 27.648438 -8.066406 28.515625 -10.328125 L 29.15625 -10.328125 L 32.390625 -8.421875 C 31.523438 -5.609375 29.976562 -3.394531 27.75 -1.78125 C 25.519531 -0.164062 22.65625 0.640625 19.15625 0.640625 Z M 19.15625 0.640625 "/></g></g></g><g fill="#8c52ff" fill-opacity="1"><g transform="translate(441.837677, 701.073921)"><g><path d="M 19.15625 0.640625 C 16.007812 0.640625 13.269531 -0.0234375 10.9375 -1.359375 C 8.613281 -2.691406 6.816406 -4.65625 5.546875 -7.25 C 4.285156 -9.84375 3.65625 -12.988281 3.65625 -16.6875 C 3.65625 -20.375 4.285156 -23.519531 5.546875 -26.125 C 6.816406 -28.726562 8.613281 -30.695312 10.9375 -32.03125 C 13.269531 -33.363281 16.007812 -34.03125 19.15625 -34.03125 C 22.3125 -34.03125 25.050781 -33.363281 27.375 -32.03125 C 29.707031 -30.695312 31.503906 -28.726562 32.765625 -26.125 C 34.023438 -23.519531 34.65625 -20.375 34.65625 -16.6875 C 34.65625 -12.988281 34.023438 -9.84375 32.765625 -7.25 C 31.503906 -4.65625 29.707031 -2.691406 27.375 -1.359375 C 25.050781 -0.0234375 22.3125 0.640625 19.15625 0.640625 Z M 19.15625 -3.78125 C 22.488281 -3.78125 25.035156 -4.828125 26.796875 -6.921875 C 28.566406 -9.023438 29.453125 -12.28125 29.453125 -16.6875 C 29.453125 -21.101562 28.566406 -24.359375 26.796875 -26.453125 C 25.035156 -28.554688 22.488281 -29.609375 19.15625 -29.609375 C 15.832031 -29.609375 13.28125 -28.550781 11.5 -26.4375 C 9.726562 -24.332031 8.84375 -21.082031 8.84375 -16.6875 C 8.84375 -12.28125 9.726562 -9.023438 11.5 -6.921875 C 13.28125 -4.828125 15.832031 -3.78125 19.15625 -3.78125 Z M 19.15625 -3.78125 "/></g></g></g><g fill="#8c52ff" fill-opacity="1"><g transform="translate(480.158995, 701.073921)"><g><path d="M 5.8125 0 L 5.8125 -33.390625 L 10.5 -33.390625 L 10.5 -28.453125 L 11.140625 -28.34375 C 12.273438 -30.21875 13.644531 -31.632812 15.25 -32.59375 C 16.851562 -33.550781 18.773438 -34.03125 21.015625 -34.03125 C 23.597656 -34.03125 25.59375 -33.539062 27 -32.5625 C 28.414062 -31.582031 29.515625 -30.003906 30.296875 -27.828125 L 30.9375 -27.828125 C 32.09375 -29.859375 33.507812 -31.398438 35.1875 -32.453125 C 36.875 -33.503906 38.953125 -34.03125 41.421875 -34.03125 C 44.847656 -34.03125 47.398438 -33.097656 49.078125 -31.234375 C 50.765625 -29.378906 51.609375 -26.554688 51.609375 -22.765625 L 51.609375 0 L 46.6875 0 L 46.6875 -22.640625 C 46.6875 -25.066406 46.175781 -26.851562 45.15625 -28 C 44.132812 -29.15625 42.492188 -29.734375 40.234375 -29.734375 C 37.566406 -29.734375 35.390625 -28.765625 33.703125 -26.828125 C 32.023438 -24.890625 31.1875 -21.695312 31.1875 -17.25 L 31.1875 0 L 26.25 0 L 26.25 -22.640625 C 26.25 -25.066406 25.738281 -26.851562 24.71875 -28 C 23.695312 -29.15625 22.054688 -29.734375 19.796875 -29.734375 C 17.128906 -29.734375 14.953125 -28.789062 13.265625 -26.90625 C 11.585938 -25.03125 10.75 -21.984375 10.75 -17.765625 L 10.75 0 Z M 5.8125 0 "/></g></g></g><g fill="#8c52ff" fill-opacity="1"><g transform="translate(537.065882, 701.073921)"><g><path d="M 5.515625 6.328125 L 0.75 6.328125 L 17.25 -46.796875 L 22.015625 -46.796875 Z M 5.515625 6.328125 "/></g></g></g><g fill="#8c52ff" fill-opacity="1"><g transform="translate(561.009164, 701.073921)"><g><path d="M 5.8125 0 L 5.8125 -33.390625 L 10.5 -33.390625 L 10.5 -28.453125 L 11.140625 -28.34375 C 12.273438 -30.21875 13.644531 -31.632812 15.25 -32.59375 C 16.851562 -33.550781 18.773438 -34.03125 21.015625 -34.03125 C 23.597656 -34.03125 25.59375 -33.539062 27 -32.5625 C 28.414062 -31.582031 29.515625 -30.003906 30.296875 -27.828125 L 30.9375 -27.828125 C 32.09375 -29.859375 33.507812 -31.398438 35.1875 -32.453125 C 36.875 -33.503906 38.953125 -34.03125 41.421875 -34.03125 C 44.847656 -34.03125 47.398438 -33.097656 49.078125 -31.234375 C 50.765625 -29.378906 51.609375 -26.554688 51.609375 -22.765625 L 51.609375 0 L 46.6875 0 L 46.6875 -22.640625 C 46.6875 -25.066406 46.175781 -26.851562 45.15625 -28 C 44.132812 -29.15625 42.492188 -29.734375 40.234375 -29.734375 C 37.566406 -29.734375 35.390625 -28.765625 33.703125 -26.828125 C 32.023438 -24.890625 31.1875 -21.695312 31.1875 -17.25 L 31.1875 0 L 26.25 0 L 26.25 -22.640625 C 26.25 -25.066406 25.738281 -26.851562 24.71875 -28 C 23.695312 -29.15625 22.054688 -29.734375 19.796875 -29.734375 C 17.128906 -29.734375 14.953125 -28.789062 13.265625 -26.90625 C 11.585938 -25.03125 10.75 -21.984375 10.75 -17.765625 L 10.75 0 Z M 5.8125 0 "/></g></g></g><g fill="#8c52ff" fill-opacity="1"><g transform="translate(617.916051, 701.073921)"><g><path d="M 8.296875 -39.84375 C 7.242188 -39.84375 6.390625 -40.171875 5.734375 -40.828125 C 5.078125 -41.484375 4.75 -42.316406 4.75 -43.328125 C 4.75 -44.328125 5.078125 -45.15625 5.734375 -45.8125 C 6.390625 -46.46875 7.242188 -46.796875 8.296875 -46.796875 C 9.347656 -46.796875 10.203125 -46.46875 10.859375 -45.8125 C 11.515625 -45.15625 11.84375 -44.328125 11.84375 -43.328125 C 11.84375 -42.316406 11.515625 -41.484375 10.859375 -40.828125 C 10.203125 -40.171875 9.347656 -39.84375 8.296875 -39.84375 Z M 5.8125 0 L 5.8125 -33.390625 L 10.75 -33.390625 L 10.75 0 Z M 5.8125 0 "/></g></g></g><g fill="#8c52ff" fill-opacity="1"><g transform="translate(634.473546, 701.073921)"><g><path d="M 13.296875 0.640625 C 10.929688 0.640625 9.070312 -0.03125 7.71875 -1.375 C 6.363281 -2.71875 5.6875 -4.722656 5.6875 -7.390625 L 5.6875 -46.796875 L 10.625 -46.796875 L 10.625 -7.71875 C 10.625 -6.320312 10.890625 -5.316406 11.421875 -4.703125 C 11.960938 -4.085938 12.796875 -3.78125 13.921875 -3.78125 C 14.609375 -3.78125 15.304688 -3.894531 16.015625 -4.125 L 16.4375 -4 L 17.015625 -0.125 C 16.648438 0.125 16.128906 0.3125 15.453125 0.4375 C 14.773438 0.570312 14.054688 0.640625 13.296875 0.640625 Z M 13.296875 0.640625 "/></g></g></g><g fill="#8c52ff" fill-opacity="1"><g transform="translate(652.635318, 701.073921)"><g><path d="M 13.296875 0.640625 C 10.929688 0.640625 9.070312 -0.03125 7.71875 -1.375 C 6.363281 -2.71875 5.6875 -4.722656 5.6875 -7.390625 L 5.6875 -46.796875 L 10.625 -46.796875 L 10.625 -7.71875 C 10.625 -6.320312 10.890625 -5.316406 11.421875 -4.703125 C 11.960938 -4.085938 12.796875 -3.78125 13.921875 -3.78125 C 14.609375 -3.78125 15.304688 -3.894531 16.015625 -4.125 L 16.4375 -4 L 17.015625 -0.125 C 16.648438 0.125 16.128906 0.3125 15.453125 0.4375 C 14.773438 0.570312 14.054688 0.640625 13.296875 0.640625 Z M 13.296875 0.640625 "/></g></g></g><g fill="#8c52ff" fill-opacity="1"><g transform="translate(670.797091, 701.073921)"><g><path d="M 26.703125 0 L 2.265625 0 L 2.265625 -4.296875 L 20.609375 -28.734375 L 20.4375 -29.359375 L 3.03125 -29.359375 L 3.03125 -33.421875 L 26.421875 -33.421875 L 26.421875 -29.125 L 8.078125 -4.6875 L 8.296875 -4.0625 L 26.703125 -4.0625 Z M 26.703125 0 "/></g></g></g><g fill="#8c52ff" fill-opacity="1"><g transform="translate(699.886185, 701.073921)"><g><path d="M 31.8125 -15.5625 L 8.875 -15.5625 C 9.007812 -11.5 9.976562 -8.519531 11.78125 -6.625 C 13.59375 -4.726562 16.070312 -3.78125 19.21875 -3.78125 C 21.601562 -3.78125 23.519531 -4.203125 24.96875 -5.046875 C 26.425781 -5.898438 27.566406 -7.234375 28.390625 -9.046875 L 29.03125 -9.046875 L 32.234375 -7.140625 C 31.265625 -4.722656 29.71875 -2.820312 27.59375 -1.4375 C 25.46875 -0.0507812 22.675781 0.640625 19.21875 0.640625 C 15.988281 0.640625 13.210938 0.00390625 10.890625 -1.265625 C 8.578125 -2.535156 6.789062 -4.460938 5.53125 -7.046875 C 4.28125 -9.628906 3.65625 -12.84375 3.65625 -16.6875 C 3.65625 -20.476562 4.316406 -23.675781 5.640625 -26.28125 C 6.960938 -28.882812 8.769531 -30.828125 11.0625 -32.109375 C 13.351562 -33.390625 15.972656 -34.03125 18.921875 -34.03125 C 23.203125 -34.03125 26.539062 -32.820312 28.9375 -30.40625 C 31.34375 -28 32.554688 -24.421875 32.578125 -19.671875 C 32.578125 -17.816406 32.535156 -16.566406 32.453125 -15.921875 Z M 27.703125 -19.671875 C 27.617188 -23.222656 26.828125 -25.804688 25.328125 -27.421875 C 23.835938 -29.035156 21.703125 -29.84375 18.921875 -29.84375 C 15.992188 -29.84375 13.695312 -29.03125 12.03125 -27.40625 C 10.363281 -25.78125 9.347656 -23.203125 8.984375 -19.671875 Z M 27.703125 -19.671875 "/></g></g></g><g fill="#8c52ff" fill-opacity="1"><g transform="translate(735.48326, 701.073921)"><g><path d="M 16.5 0.640625 C 12.726562 0.640625 9.914062 -0.359375 8.0625 -2.359375 C 6.21875 -4.359375 5.296875 -7.285156 5.296875 -11.140625 L 5.296875 -33.390625 L 10.234375 -33.390625 L 10.234375 -11.265625 C 10.234375 -6.191406 12.613281 -3.65625 17.375 -3.65625 C 20.40625 -3.65625 22.796875 -4.644531 24.546875 -6.625 C 26.304688 -8.601562 27.1875 -11.8125 27.1875 -16.25 L 27.1875 -33.390625 L 32.125 -33.390625 L 32.125 0 L 27.453125 0 L 27.453125 -5.234375 L 26.828125 -5.390625 C 25.671875 -3.347656 24.289062 -1.832031 22.6875 -0.84375 C 21.082031 0.144531 19.019531 0.640625 16.5 0.640625 Z M 16.5 0.640625 "/></g></g></g><g fill="#8c52ff" fill-opacity="1"><g transform="translate(773.411084, 701.073921)"><g><path d="M 15.234375 0.640625 C 13.128906 0.640625 11.179688 0.363281 9.390625 -0.1875 C 7.609375 -0.75 6.101562 -1.515625 4.875 -2.484375 C 3.644531 -3.453125 2.773438 -4.539062 2.265625 -5.75 L 5.171875 -8.78125 L 5.8125 -8.78125 C 6.90625 -7.125 8.21875 -5.875 9.75 -5.03125 C 11.28125 -4.195312 13.109375 -3.78125 15.234375 -3.78125 C 17.691406 -3.78125 19.5625 -4.257812 20.84375 -5.21875 C 22.125 -6.175781 22.765625 -7.515625 22.765625 -9.234375 C 22.765625 -10.546875 22.375 -11.628906 21.59375 -12.484375 C 20.820312 -13.347656 19.566406 -13.988281 17.828125 -14.40625 L 12.203125 -15.796875 C 9.191406 -16.523438 6.992188 -17.675781 5.609375 -19.25 C 4.234375 -20.820312 3.546875 -22.769531 3.546875 -25.09375 C 3.546875 -26.914062 4.007812 -28.492188 4.9375 -29.828125 C 5.863281 -31.171875 7.195312 -32.207031 8.9375 -32.9375 C 10.6875 -33.664062 12.765625 -34.03125 15.171875 -34.03125 C 18.234375 -34.03125 20.644531 -33.597656 22.40625 -32.734375 C 24.175781 -31.878906 25.554688 -30.6875 26.546875 -29.15625 L 23.765625 -26.421875 L 23.15625 -26.421875 C 22.09375 -27.660156 20.925781 -28.550781 19.65625 -29.09375 C 18.394531 -29.632812 16.898438 -29.90625 15.171875 -29.90625 C 12.972656 -29.90625 11.285156 -29.507812 10.109375 -28.71875 C 8.941406 -27.9375 8.359375 -26.800781 8.359375 -25.3125 C 8.359375 -23.957031 8.769531 -22.863281 9.59375 -22.03125 C 10.425781 -21.207031 11.867188 -20.546875 13.921875 -20.046875 L 19.46875 -18.703125 C 22.375 -18.023438 24.472656 -16.882812 25.765625 -15.28125 C 27.054688 -13.6875 27.703125 -11.691406 27.703125 -9.296875 C 27.703125 -7.335938 27.238281 -5.609375 26.3125 -4.109375 C 25.382812 -2.617188 23.976562 -1.453125 22.09375 -0.609375 C 20.21875 0.222656 17.929688 0.640625 15.234375 0.640625 Z M 15.234375 0.640625 "/></g></g></g><g fill="#8c52ff" fill-opacity="1"><g transform="translate(87.503907, 352.755749)"><g><path d="M 97.300781 -85.203125 L 80.136719 -85.203125 L 55.070312 -9.015625 L 29.882812 -85.203125 L 12.347656 -85.203125 L 12.347656 0 L 22.96875 0 L 22.96875 -43.835938 C 22.96875 -54.332031 22.96875 -66.0625 22.71875 -75.324219 C 25.4375 -66.183594 29.386719 -54.332031 32.84375 -44.207031 L 48.15625 0 L 61.492188 0 L 76.558594 -43.957031 C 80.136719 -54.332031 84.089844 -66.308594 86.929688 -75.570312 C 86.683594 -66.308594 86.683594 -54.453125 86.683594 -43.835938 L 86.683594 0 L 97.300781 0 Z M 97.300781 -85.203125 "/></g></g></g><g fill="#8c52ff" fill-opacity="1"><g transform="translate(194.427791, 352.755749)"><g><path d="M 22.96875 0 L 22.96875 -85.203125 L 12.347656 -85.203125 L 12.347656 0 Z M 22.96875 0 "/></g></g></g><g fill="#8c52ff" fill-opacity="1"><g transform="translate(227.023526, 352.755749)"><g><path d="M 69.023438 -8.644531 L 22.96875 -8.644531 L 22.96875 -85.203125 L 12.347656 -85.203125 L 12.347656 0 L 69.023438 0 Z M 69.023438 -8.644531 "/></g></g></g><g fill="#8c52ff" fill-opacity="1"><g transform="translate(298.01801, 352.755749)"><g><path d="M 69.023438 -8.644531 L 22.96875 -8.644531 L 22.96875 -85.203125 L 12.347656 -85.203125 L 12.347656 0 L 69.023438 0 Z M 69.023438 -8.644531 "/></g></g></g><g fill="#8c52ff" fill-opacity="1"><g transform="translate(369.012506, 352.755749)"><g/></g></g><g fill="#8c52ff" fill-opacity="1"><g transform="translate(395.681747, 352.755749)"><g><path d="M 56.308594 -30.128906 L 66.433594 0 L 77.914062 0 L 48.527344 -85.203125 L 34.203125 -85.203125 L 3.582031 0 L 14.941406 0 L 24.941406 -30.128906 Z M 27.90625 -38.773438 L 41.117188 -76.804688 L 53.46875 -38.773438 Z M 27.90625 -38.773438 "/></g></g></g><g fill="#8c52ff" fill-opacity="1"><g transform="translate(474.578228, 352.755749)"><g><path d="M 79.027344 0 L 78.78125 -85.203125 L 68.40625 -85.203125 L 68.40625 -42.601562 C 68.40625 -32.597656 68.53125 -20.375 68.777344 -10.371094 L 28.648438 -85.203125 L 12.347656 -85.203125 L 12.347656 0 L 22.96875 0 L 22.96875 -42.601562 C 22.96875 -52.601562 22.84375 -64.828125 22.597656 -74.828125 L 62.726562 0 Z M 79.027344 0 "/></g></g></g><g fill="#8c52ff" fill-opacity="1"><g transform="translate(563.228736, 352.755749)"><g><path d="M 49.144531 -84.707031 C 44.824219 -85.203125 42.847656 -85.203125 38.277344 -85.203125 L 12.347656 -85.203125 L 12.347656 0 L 37.660156 0 C 42.230469 0 44.207031 0 48.527344 -0.492188 C 68.285156 -2.964844 82.855469 -18.523438 82.855469 -43.589844 C 82.855469 -69.023438 68.902344 -82.238281 49.144531 -84.707031 Z M 47.417969 -9.261719 C 44.699219 -8.765625 41.488281 -8.644531 37.042969 -8.644531 L 22.96875 -8.644531 L 22.96875 -76.558594 L 37.660156 -76.558594 C 42.105469 -76.558594 45.316406 -76.433594 48.035156 -75.941406 C 62.480469 -73.59375 71.246094 -62.480469 71.246094 -43.589844 C 71.246094 -23.460938 61.863281 -11.605469 47.417969 -9.261719 Z M 47.417969 -9.261719 "/></g></g></g><g fill="#8c52ff" fill-opacity="1"><g transform="translate(650.768023, 352.755749)"><g><path d="M 43.09375 -33.585938 L 73.222656 -85.203125 L 61.246094 -85.203125 L 38.277344 -43.835938 L 14.570312 -85.203125 L 2.347656 -85.203125 L 32.476562 -33.585938 L 32.476562 0 L 43.09375 0 Z M 43.09375 -33.585938 "/></g></g></g></svg>